#!OML:ASF F:\VICON\USERDATA\INSTALL\rory3\rory3.ASF
:FULLY-SPECIFIED
:DEGREES
1816
root -1.08621 15.9378 -4.23002 163.576 145.201 175.622
lowerback 25.7452 0.25797 -5.91905
upperback 9.50782 -0.630586 2.63707
thorax -3.57814 -0.349456 6.46577
lowerneck -16.2478 -10.4177 -14.5022
upperneck 14.0599 -13.1321 12.7423
head 8.90627 -5.8659 4.87867
rclavicle -2.77305e-014 -1.37161e-014
rhumerus -35.4124 3.09364 -81.7391
rradius 49.2485
rwrist 14.3291
rhand -29.0917 5.59981
rfingers 7.12502
rthumb -2.44024 -24.366
lclavicle -2.77305e-014 -1.37161e-014
lhumerus -43.2264 -14.9471 96.408
lradius 43.8877
lwrist 20.2141
lhand -38.3227 13.7709
lfingers 7.12502
lthumb -11.3505 43.4438
rfemur -50.351 -37.6608 24.8107
rtibia 100.055
rfoot -17.8443 -9.15002
rtoes 6.38737
lfemur -88.107 48.0686 -32.6907
ltibia 135.888
lfoot -18.1004 -14.1888
ltoes -23.969
1817
root -1.09917 15.9423 -4.22664 163.177 145.26 175.474
lowerback 25.8053 0.233772 -5.83348
upperback 9.54938 -0.638333 2.70014
thorax -3.56086 -0.354208 6.48929
lowerneck -15.9487 -10.5169 -14.5685
upperneck 14.2862 -13.3085 12.6952
head 8.957 -5.96557 4.85411
rclavicle 9.22858e-014 -2.80286e-014
rhumerus -35.099 1.92797 -81.561
rradius 48.4382
rwrist 14.6608
rhand -28.3496 4.93004
rfingers 7.12502
rthumb -1.72353 -25.0427
lclavicle 9.22858e-014 -2.80286e-014
lhumerus -43.1435 -14.6588 95.7576
lradius 42.7866
lwrist 21.3049
lhand -37.3673 12.9892
lfingers 7.12502
lthumb -10.429 42.7106
rfemur -49.9411 -37.6018 24.7295
rtibia 100.01
rfoot -17.5598 -8.84756
rtoes 6.98197
lfemur -87.5899 48.1793 -32.0193
ltibia 135.88
lfoot -17.9684 -14.489
ltoes -23.3592
1818
root -1.11199 15.9422 -4.22583 162.965 145.312 175.399
lowerback 25.74 0.241865 -5.84155
upperback 9.51901 -0.624218 2.77665
thorax -3.56339 -0.34859 6.57417
lowerneck -15.5033 -10.5629 -14.6418
upperneck 14.4478 -13.4188 12.6297
head 8.94918 -6.0431 4.84092
rclavicle 6.62947e-014 -4.77083e-014
rhumerus -34.8487 0.590655 -81.3697
rradius 47.5441
rwrist 14.3594
rhand -28.8806 4.98397
rfingers 7.12502
rthumb -2.23635 -24.9841
lclavicle 6.62947e-014 -4.77083e-014
lhumerus -43.212 -14.4254 95.2026
lradius 41.8506
lwrist 22.7377
lhand -35.3145 13.738
lfingers 7.12502
lthumb -8.44829 43.549
rfemur -49.7878 -37.4605 24.7137
rtibia 99.9876
rfoot -17.2709 -8.56999
rtoes 8.16414
lfemur -87.3326 48.0502 -31.5931
ltibia 135.885
lfoot -17.6766 -14.7428
ltoes -22.415
1819
root -1.12431 15.9373 -4.22596 162.919 145.294 175.419
lowerback 25.5885 0.153967 -5.88784
upperback 9.44156 -0.746119 2.78159
thorax -3.55595 -0.409597 6.63755
lowerneck -15.1446 -10.5658 -14.7607
upperneck 14.7364 -13.4655 12.5916
head 8.99607 -6.08624 4.8531
rclavicle 3.66758e-014 -3.74709e-014
rhumerus -34.6158 -0.473938 -81.254
rradius 46.5912
rwrist 13.6416
rhand -29.8352 5.77254
rfingers 7.12502
rthumb -3.15834 -24.1838
lclavicle 3.66758e-014 -3.74709e-014
lhumerus -43.3313 -13.8733 94.4398
lradius 41.0485
lwrist 24.2261
lhand -36.7338 15.4956
lfingers 7.12502
lthumb -9.8178 45.2467
rfemur -49.8033 -37.3446 24.6726
rtibia 99.995
rfoot -17.1139 -8.32869
rtoes 8.87364
lfemur -87.2393 47.6158 -31.4135
ltibia 135.892
lfoot -17.3599 -14.6991
ltoes -21.6284
1820
root -1.13618 15.9369 -4.22652 162.974 145.277 175.489
lowerback 25.4325 0.0681447 -5.83484
upperback 9.2861 -0.851709 2.68311
thorax -3.64171 -0.453835 6.52416
lowerneck -14.7128 -10.6127 -14.6806
upperneck 14.9996 -13.6075 12.4579
head 9.01273 -6.17454 4.78793
rclavicle -6.94255e-014 3.46879e-014
rhumerus -34.5531 -1.58359 -81.1843
rradius 45.6974
rwrist 13.5066
rhand -30.366 5.69455
rfingers 7.12502
rthumb -3.6709 -24.2536
lclavicle -6.94255e-014 3.46879e-014
lhumerus -43.5049 -13.3294 93.4791
lradius 40.3881
lwrist 25.2063
lhand -37.8014 16.6272
lfingers 7.12502
lthumb -10.8477 46.327
rfemur -49.8211 -37.1714 24.6147
rtibia 99.9605
rfoot -16.956 -7.94926
rtoes 9.65531
lfemur -87.1667 47.2037 -31.3554
ltibia 135.88
lfoot -17.1993 -14.486
ltoes -20.9633
1821
root -1.14738 15.9385 -4.22765 163.11 145.333 175.577
lowerback 25.2652 0.0461564 -5.7722
upperback 9.08168 -0.874038 2.59833
thorax -3.78898 -0.454115 6.39829
lowerneck -14.422 -10.7076 -14.6242
upperneck 15.3108 -13.7899 12.2963
head 9.07594 -6.27908 4.70492
rclavicle 2.42517e-014 -9.54166e-015
rhumerus -34.6169 -2.85347 -80.974
rradius 45.0077
rwrist 13.61
rhand -29.7936 5.39328
rfingers 7.12502
rthumb -3.11817 -24.5637
lclavicle 2.42517e-014 -9.54166e-015
lhumerus -43.782 -12.8186 92.5533
lradius 40.0722
lwrist 25.8936
lhand -37.4751 17.0965
lfingers 7.12502
lthumb -10.5329 46.8126
rfemur -49.9566 -36.9042 24.655
rtibia 99.9327
rfoot -16.713 -7.65392
rtoes 10.126
lfemur -87.2749 46.8759 -31.4297
ltibia 135.876
lfoot -17.0017 -14.1986
ltoes -20.3944
1822
root -1.1578 15.9403 -4.22995 163.186 145.468 175.647
lowerback 25.139 0.0557193 -5.77683
upperback 8.91217 -0.86658 2.6001
thorax -3.91684 -0.443732 6.40046
lowerneck -14.158 -10.7916 -14.7813
upperneck 15.526 -13.9205 12.252
head 9.12942 -6.36106 4.70295
rclavicle 1.63003e-014 -3.05134e-014
rhumerus -35.1018 -2.28437 -81.7848
rradius 44.5921
rwrist 17.4419
rhand -32.8957 -3.22284
rfingers 7.12502
rthumb -6.11356 -33.1146
lclavicle 1.63003e-014 -3.05134e-014
lhumerus -44.1311 -12.1259 91.7062
lradius 40.0741
lwrist 26.009
lhand -37.2499 18.3432
lfingers 7.12502
lthumb -10.3158 48.0702
rfemur -50.0512 -36.5615 24.6936
rtibia 99.9285
rfoot -16.4698 -7.37818
rtoes 10.1947
lfemur -87.3288 46.682 -31.4272
ltibia 135.876
lfoot -16.7447 -13.9432
ltoes -19.3032
1823
root -1.16642 15.9416 -4.22978 163.147 145.663 175.69
lowerback 25.0191 0.093546 -5.74143
upperback 8.81724 -0.810005 2.60292
thorax -3.97342 -0.412516 6.36577
lowerneck -13.6985 -10.9187 -15.2372
upperneck 15.5371 -14.1273 12.5498
head 9.14169 -6.47567 4.86005
rclavicle 3.97569e-014 -3.60794e-014
rhumerus -35.0927 -4.5219 -80.6179
rradius 44.0742
rwrist 14.9945
rhand -29.7669 3.33621
rfingers 7.12502
rthumb -3.0923 -26.6211
lclavicle 3.97569e-014 -3.60794e-014
lhumerus -44.4243 -11.3341 90.667
lradius 40.1739
lwrist 26.1599
lhand -37.014 18.9188
lfingers 7.12502
lthumb -10.0881 48.6569
rfemur -49.9816 -36.1544 24.6564
rtibia 99.9511
rfoot -16.2545 -6.96713
rtoes 9.82766
lfemur -87.1334 46.578 -31.1702
ltibia 135.894
lfoot -16.5585 -13.6955
ltoes -18.1346
1824
root -1.17538 15.9416 -4.22692 163.173 145.768 176.033
lowerback 24.9349 0.163975 -5.87158
upperback 8.78221 -0.759298 2.44195
thorax -3.97853 -0.38666 6.24705
lowerneck -13.1538 -11.0499 -15.8109
upperneck 15.4258 -14.3873 13.1621
head 9.14339 -6.60014 5.13942
rclavicle 5.889e-014 -2.64384e-014
rhumerus -35.2973 -5.37387 -80.4926
rradius 43.8549
rwrist 14.5947
rhand -29.667 3.34729
rfingers 7.12502
rthumb -2.99584 -26.6114
lclavicle 5.889e-014 -2.64384e-014
lhumerus -44.625 -10.3234 89.1327
lradius 40.247
lwrist 26.857
lhand -36.5174 17.304
lfingers 7.12502
lthumb -9.60908 47.0648
rfemur -49.7915 -35.8331 24.2362
rtibia 100.049
rfoot -16.1287 -6.49916
rtoes 9.31061
lfemur -86.6005 46.3508 -30.9839
ltibia 135.89
lfoot -16.5404 -13.3166
ltoes -17.3213
